REM DIRINDEX 1\2\4,1\2\5,1\2\6,1\3\7,1\3\8,1\3\9,1\3\10
REM DIRNAME cjc057,folder01,folder02,folder03,folder04,folder05,folder06,folder07,folder08,folder09
TITLE ""
FILE "a_111.mp3" MP3
  TRACK 01 AUDIO
    TITLE "0:"
    INDEX 01 00:00:00
  TRACK 02 AUDIO
    TITLE "4:cjc057_01568"
    INDEX 01 00:00:13
  TRACK 03 AUDIO
    TITLE "0:"
    INDEX 01 00:01:38
  TRACK 04 AUDIO
    TITLE "5:cjc057_01569"
    INDEX 01 00:01:69
  TRACK 05 AUDIO
    TITLE "0:"
    INDEX 01 00:04:23
  TRACK 06 AUDIO
    TITLE "4:cjc057_01570"
    INDEX 01 00:05:26
  TRACK 07 AUDIO
    TITLE "0:"
    INDEX 01 00:06:39
  TRACK 08 AUDIO
    TITLE "5:cjc057_01571"
    INDEX 01 00:06:69
  TRACK 09 AUDIO
    TITLE "0:"
    INDEX 01 00:09:00
  TRACK 10 AUDIO
    TITLE "4:cjc057_01572"
    INDEX 01 00:10:08
  TRACK 11 AUDIO
    TITLE "0:"
    INDEX 01 00:11:17
  TRACK 12 AUDIO
    TITLE "5:cjc057_01573"
    INDEX 01 00:11:50
  TRACK 13 AUDIO
    TITLE "0:"
    INDEX 01 00:15:17
  TRACK 14 AUDIO
    TITLE "4:cjc057_01574"
    INDEX 01 00:16:24
  TRACK 15 AUDIO
    TITLE "0:"
    INDEX 01 00:17:53
  TRACK 16 AUDIO
    TITLE "5:cjc057_01575"
    INDEX 01 00:18:09
  TRACK 17 AUDIO
    TITLE "0:"
    INDEX 01 00:19:09
  TRACK 18 AUDIO
    TITLE "4:cjc057_01576"
    INDEX 01 00:20:18
  TRACK 19 AUDIO
    TITLE "0:"
    INDEX 01 00:21:31
  TRACK 20 AUDIO
    TITLE "5:cjc057_01577"
    INDEX 01 00:21:62
  TRACK 21 AUDIO
    TITLE "0:"
    INDEX 01 00:24:04
  TRACK 22 AUDIO
    TITLE "4:cjc057_01578"
    INDEX 01 00:25:11
  TRACK 23 AUDIO
    TITLE "0:"
    INDEX 01 00:26:48
  TRACK 24 AUDIO
    TITLE "5:cjc057_01579"
    INDEX 01 00:27:06
  TRACK 25 AUDIO
    TITLE "0:"
    INDEX 01 00:29:44
  TRACK 26 AUDIO
    TITLE "4:cjc057_01580"
    INDEX 01 00:30:50
  TRACK 27 AUDIO
    TITLE "0:"
    INDEX 01 00:32:70
  TRACK 28 AUDIO
    TITLE "5:cjc057_01581"
    INDEX 01 00:33:26
  TRACK 29 AUDIO
    TITLE "0:"
    INDEX 01 00:36:27
  TRACK 30 AUDIO
    TITLE "4:cjc057_01582"
    INDEX 01 00:37:36
  TRACK 31 AUDIO
    TITLE "0:"
    INDEX 01 00:38:41
  TRACK 32 AUDIO
    TITLE "5:cjc057_01583"
    INDEX 01 00:38:73
  TRACK 33 AUDIO
    TITLE "0:"
    INDEX 01 00:42:29
  TRACK 34 AUDIO
    TITLE "4:cjc057_01584"
    INDEX 01 00:43:33
  TRACK 35 AUDIO
    TITLE "0:"
    INDEX 01 00:44:48
  TRACK 36 AUDIO
    TITLE "5:cjc057_01585"
    INDEX 01 00:45:04
  TRACK 37 AUDIO
    TITLE "0:"
    INDEX 01 00:48:06
  TRACK 38 AUDIO
    TITLE "4:cjc057_01586"
    INDEX 01 00:49:14
  TRACK 39 AUDIO
    TITLE "0:"
    INDEX 01 00:50:25
  TRACK 40 AUDIO
    TITLE "5:cjc057_01587"
    INDEX 01 00:50:58
  TRACK 41 AUDIO
    TITLE "0:"
    INDEX 01 00:52:73
  TRACK 42 AUDIO
    TITLE "4:cjc057_01588"
    INDEX 01 00:54:03
  TRACK 43 AUDIO
    TITLE "0:"
    INDEX 01 00:55:22
  TRACK 44 AUDIO
    TITLE "5:cjc057_01589"
    INDEX 01 00:55:53
  TRACK 45 AUDIO
    TITLE "0:"
    INDEX 01 01:00:19
  TRACK 46 AUDIO
    TITLE "4:cjc057_01590"
    INDEX 01 01:01:25
  TRACK 47 AUDIO
    TITLE "0:"
    INDEX 01 01:02:40
  TRACK 48 AUDIO
    TITLE "5:cjc057_01591"
    INDEX 01 01:02:73
  TRACK 49 AUDIO
    TITLE "0:"
    INDEX 01 01:06:67
  TRACK 50 AUDIO
    TITLE "4:cjc057_01592"
    INDEX 01 01:07:74
  TRACK 51 AUDIO
    TITLE "0:"
    INDEX 01 01:09:03
  TRACK 52 AUDIO
    TITLE "5:cjc057_01593"
    INDEX 01 01:09:36
  TRACK 53 AUDIO
    TITLE "0:"
    INDEX 01 01:13:02
  TRACK 54 AUDIO
    TITLE "4:cjc057_01594"
    INDEX 01 01:14:10
  TRACK 55 AUDIO
    TITLE "0:"
    INDEX 01 01:15:21
  TRACK 56 AUDIO
    TITLE "5:cjc057_01595"
    INDEX 01 01:15:54
  TRACK 57 AUDIO
    TITLE "0:"
    INDEX 01 01:18:64
  TRACK 58 AUDIO
    TITLE "4:cjc057_01596"
    INDEX 01 01:19:72
  TRACK 59 AUDIO
    TITLE "0:"
    INDEX 01 01:21:12
  TRACK 60 AUDIO
    TITLE "5:cjc057_01597"
    INDEX 01 01:21:45
  TRACK 61 AUDIO
    TITLE "0:"
    INDEX 01 01:23:73
  TRACK 62 AUDIO
    TITLE "4:cjc057_01598"
    INDEX 01 01:25:04
  TRACK 63 AUDIO
    TITLE "0:"
    INDEX 01 01:26:07
  TRACK 64 AUDIO
    TITLE "5:cjc057_01599"
    INDEX 01 01:26:38
  TRACK 65 AUDIO
    TITLE "0:"
    INDEX 01 01:29:62
  TRACK 66 AUDIO
    TITLE "4:cjc057_01600"
    INDEX 01 01:30:69
  TRACK 67 AUDIO
    TITLE "0:"
    INDEX 01 01:32:12
  TRACK 68 AUDIO
    TITLE "5:cjc057_01601"
    INDEX 01 01:32:43
  TRACK 69 AUDIO
    TITLE "0:"
    INDEX 01 01:35:67
  TRACK 70 AUDIO
    TITLE "4:cjc057_01602"
    INDEX 01 01:37:01
  TRACK 71 AUDIO
    TITLE "0:"
    INDEX 01 01:38:24
  TRACK 72 AUDIO
    TITLE "5:cjc057_01603"
    INDEX 01 01:38:57
  TRACK 73 AUDIO
    TITLE "0:"
    INDEX 01 01:40:64
  TRACK 74 AUDIO
    TITLE "4:cjc057_01604"
    INDEX 01 01:41:73
  TRACK 75 AUDIO
    TITLE "0:"
    INDEX 01 01:43:19
  TRACK 76 AUDIO
    TITLE "5:cjc057_01605"
    INDEX 01 01:43:51
  TRACK 77 AUDIO
    TITLE "0:"
    INDEX 01 01:47:01
  TRACK 78 AUDIO
    TITLE "4:cjc057_01606"
    INDEX 01 01:48:09
  TRACK 79 AUDIO
    TITLE "0:"
    INDEX 01 01:49:10
  TRACK 80 AUDIO
    TITLE "5:cjc057_01607"
    INDEX 01 01:49:43
  TRACK 81 AUDIO
    TITLE "0:"
    INDEX 01 01:52:65
  TRACK 82 AUDIO
    TITLE "4:cjc057_01608"
    INDEX 01 01:53:72
  TRACK 83 AUDIO
    TITLE "0:"
    INDEX 01 01:54:74
  TRACK 84 AUDIO
    TITLE "5:cjc057_01609"
    INDEX 01 01:55:32
  TRACK 85 AUDIO
    TITLE "0:"
    INDEX 01 01:58:56
  TRACK 86 AUDIO
    TITLE "4:cjc057_01610"
    INDEX 01 01:59:63
  TRACK 87 AUDIO
    TITLE "0:"
    INDEX 01 02:01:03
  TRACK 88 AUDIO
    TITLE "5:cjc057_01611"
    INDEX 01 02:01:33
  TRACK 89 AUDIO
    TITLE "0:"
    INDEX 01 02:04:25
  TRACK 90 AUDIO
    TITLE "4:cjc057_01612"
    INDEX 01 02:05:31
  TRACK 91 AUDIO
    TITLE "0:"
    INDEX 01 02:06:44
  TRACK 92 AUDIO
    TITLE "5:cjc057_01613"
    INDEX 01 02:07:02
  TRACK 93 AUDIO
    TITLE "0:"
    INDEX 01 02:08:05
  TRACK 94 AUDIO
    TITLE "4:cjc057_01614"
    INDEX 01 02:09:11
  TRACK 95 AUDIO
    TITLE "0:"
    INDEX 01 02:10:43
  TRACK 96 AUDIO
    TITLE "5:cjc057_01615"
    INDEX 01 02:10:71
  TRACK 97 AUDIO
    TITLE "0:"
    INDEX 01 02:13:61
  TRACK 98 AUDIO
    TITLE "4:cjc057_01616"
    INDEX 01 02:14:67
  TRACK 99 AUDIO
    TITLE "0:"
    INDEX 01 02:16:05
  TRACK 100 AUDIO
    TITLE "5:cjc057_01617"
    INDEX 01 02:16:38
  TRACK 101 AUDIO
    TITLE "0:"
    INDEX 01 02:18:49
  TRACK 102 AUDIO
    TITLE "4:cjc057_01618"
    INDEX 01 02:19:56
  TRACK 103 AUDIO
    TITLE "0:"
    INDEX 01 02:21:02
  TRACK 104 AUDIO
    TITLE "5:cjc057_01619"
    INDEX 01 02:21:33
  TRACK 105 AUDIO
    TITLE "0:"
    INDEX 01 02:23:50
  TRACK 106 AUDIO
    TITLE "4:cjc057_01620"
    INDEX 01 02:24:53
  TRACK 107 AUDIO
    TITLE "0:"
    INDEX 01 02:25:65
  TRACK 108 AUDIO
    TITLE "5:cjc057_01621"
    INDEX 01 02:26:21
  TRACK 109 AUDIO
    TITLE "0:"
    INDEX 01 02:27:20
  TRACK 110 AUDIO
    TITLE "4:cjc057_01622"
    INDEX 01 02:28:28
  TRACK 111 AUDIO
    TITLE "0:"
    INDEX 01 02:29:43
  TRACK 112 AUDIO
    TITLE "5:cjc057_01623"
    INDEX 01 02:29:74
  TRACK 113 AUDIO
    TITLE "0:"
    INDEX 01 02:33:43
